<svg width="402" height="238" viewBox="0 0 402 238" fill="none" xmlns="http://www.w3.org/2000/svg">
<rect x="123" width="74" height="74" rx="10" fill="#7187A5"/>
<path d="M177.462 36.8104C176.95 39.0127 175.992 41.0868 174.649 42.9051C172.753 45.4753 170.351 47.6297 167.591 49.2353C167.417 49.3273 167.255 49.4367 167.091 49.5407L166.796 49.7236L166.761 49.742C164.066 51.1232 161.105 51.908 158.08 52.043C155.722 52.1698 153.359 51.9122 151.083 51.2803L151.009 51.2575C150.521 51.1657 150.083 50.8997 149.777 50.509C149.541 50.1922 149.412 49.809 149.407 49.4141C149.403 49.0193 149.523 48.6331 149.751 48.3108C150.003 47.9577 150.36 47.6933 150.772 47.5555C151.183 47.4177 151.628 47.4136 152.041 47.5437C154.777 48.503 157.717 48.7244 160.566 48.1856C162.429 47.8596 164.209 47.1676 165.804 46.1498C167.298 45.2364 168.683 44.1543 169.93 42.9246C171.508 41.2982 172.699 39.3375 173.416 37.188L173.5 36.9514C173.627 36.56 173.774 36.1755 173.941 35.7995C174.042 35.5702 174.188 35.3633 174.371 35.1911C174.553 35.0189 174.768 34.8848 175.002 34.7965C175.248 34.7084 175.508 34.6698 175.768 34.6831C176.028 34.6964 176.283 34.7613 176.518 34.8741C176.884 35.026 177.183 35.3068 177.357 35.6635C177.53 36.0202 177.568 36.4281 177.462 36.8104Z" fill="white"/>
<path d="M151.103 39.9357C151.006 40.1202 150.855 40.271 150.67 40.3685C150.486 40.4659 150.276 40.5056 150.068 40.4823L149.436 40.4733C149.063 40.4749 148.69 40.4764 148.319 40.4738C146.896 40.4674 145.757 41.0652 144.833 42.3147C144.268 43.0828 143.818 43.7181 143.421 44.3224C143.351 44.4311 143.276 44.5359 143.201 44.6406C143.09 44.8045 142.942 44.9402 142.769 45.0368C142.574 45.1385 142.35 45.1722 142.134 45.1324C141.924 45.0886 141.732 44.9798 141.587 44.8214C141.442 44.6631 141.35 44.463 141.325 44.2497C141.137 43.4084 141.124 42.5374 141.287 41.6909C141.635 39.7923 142.605 38.3437 144.087 37.4684L144.112 37.4556C145.083 36.9403 146.186 36.7274 147.279 36.8443C148.373 36.9611 149.406 37.4024 150.246 38.1114C150.457 38.2864 150.658 38.4735 150.847 38.6718C151.03 38.8203 151.155 39.0274 151.202 39.2579C151.248 39.4884 151.214 39.728 151.103 39.9357Z" fill="white"/>
<path d="M176.562 26.4901C176.477 26.6876 176.333 26.8537 176.15 26.9649C175.966 27.0761 175.752 27.1267 175.538 27.1097C174.919 27.0936 174.309 27.1004 173.698 27.1004C173.038 27.098 172.386 27.2573 171.801 27.5644C171.216 27.8715 170.716 28.3172 170.343 28.8625C169.847 29.5151 169.375 30.2065 168.917 30.8773L168.687 31.2148C168.568 31.4048 168.404 31.563 168.21 31.6757C168.006 31.7832 167.77 31.8116 167.546 31.7556C167.327 31.7067 167.131 31.5876 166.986 31.4165C166.841 31.2453 166.756 31.0315 166.744 30.8076C166.313 28.1925 167.064 26.0706 168.971 24.4872C169.126 24.366 169.289 24.2567 169.461 24.1603L169.643 24.064L169.694 24.0371C170.795 23.4846 172.051 23.3174 173.258 23.5623C174.466 23.8071 175.557 24.4499 176.357 25.3878C176.495 25.5314 176.588 25.7123 176.624 25.9082C176.661 26.1042 176.639 26.3065 176.562 26.4901Z" fill="white"/>
<rect x="205" width="74" height="74" rx="10" fill="#7187A5"/>
<path d="M259.462 36.8104C258.95 39.0127 257.992 41.0868 256.649 42.9051C254.753 45.4753 252.351 47.6297 249.591 49.2353C249.417 49.3273 249.255 49.4367 249.091 49.5407L248.796 49.7236L248.761 49.742C246.066 51.1232 243.105 51.908 240.08 52.043C237.722 52.1698 235.359 51.9122 233.083 51.2803L233.009 51.2575C232.521 51.1657 232.083 50.8997 231.777 50.509C231.541 50.1922 231.412 49.809 231.407 49.4141C231.403 49.0193 231.523 48.6331 231.751 48.3108C232.003 47.9577 232.36 47.6933 232.772 47.5555C233.183 47.4177 233.628 47.4136 234.041 47.5437C236.777 48.503 239.717 48.7244 242.566 48.1856C244.429 47.8596 246.209 47.1676 247.804 46.1498C249.298 45.2364 250.683 44.1543 251.93 42.9246C253.508 41.2982 254.699 39.3375 255.416 37.188L255.5 36.9514C255.627 36.56 255.774 36.1755 255.941 35.7995C256.042 35.5702 256.188 35.3633 256.371 35.1911C256.553 35.0189 256.768 34.8848 257.002 34.7965C257.248 34.7084 257.508 34.6698 257.768 34.6831C258.028 34.6964 258.283 34.7613 258.518 34.8741C258.884 35.026 259.183 35.3068 259.357 35.6635C259.53 36.0202 259.568 36.4281 259.462 36.8104Z" fill="white"/>
<path d="M233.103 39.9357C233.006 40.1202 232.855 40.271 232.67 40.3685C232.486 40.4659 232.276 40.5056 232.068 40.4823L231.436 40.4733C231.063 40.4749 230.69 40.4764 230.319 40.4738C228.896 40.4674 227.757 41.0652 226.833 42.3147C226.268 43.0828 225.818 43.7181 225.421 44.3224C225.351 44.4311 225.276 44.5359 225.201 44.6406C225.09 44.8045 224.942 44.9402 224.769 45.0368C224.574 45.1385 224.35 45.1722 224.134 45.1324C223.924 45.0886 223.732 44.9798 223.587 44.8214C223.442 44.6631 223.35 44.463 223.325 44.2497C223.137 43.4084 223.124 42.5374 223.287 41.6909C223.635 39.7923 224.605 38.3437 226.087 37.4684L226.112 37.4556C227.083 36.9403 228.186 36.7274 229.279 36.8443C230.373 36.9611 231.406 37.4024 232.246 38.1114C232.457 38.2864 232.658 38.4735 232.847 38.6718C233.03 38.8203 233.155 39.0274 233.202 39.2579C233.248 39.4884 233.214 39.728 233.103 39.9357Z" fill="white"/>
<path d="M258.562 26.4901C258.477 26.6876 258.333 26.8537 258.15 26.9649C257.966 27.0761 257.752 27.1267 257.538 27.1097C256.919 27.0936 256.309 27.1004 255.698 27.1004C255.038 27.098 254.386 27.2573 253.801 27.5644C253.216 27.8715 252.716 28.3172 252.343 28.8625C251.847 29.5151 251.375 30.2065 250.917 30.8773L250.687 31.2148C250.568 31.4048 250.404 31.563 250.21 31.6757C250.006 31.7832 249.77 31.8116 249.546 31.7556C249.327 31.7067 249.131 31.5876 248.986 31.4165C248.841 31.2453 248.756 31.0315 248.744 30.8076C248.313 28.1925 249.064 26.0706 250.971 24.4872C251.126 24.366 251.289 24.2567 251.461 24.1603L251.643 24.064L251.694 24.0371C252.795 23.4846 254.051 23.3174 255.258 23.5623C256.466 23.8071 257.557 24.4499 258.357 25.3878C258.495 25.5314 258.588 25.7123 258.624 25.9082C258.661 26.1042 258.639 26.3065 258.562 26.4901Z" fill="white"/>
<rect x="287" width="74" height="74" rx="10" fill="#7187A5"/>
<path d="M341.462 36.8104C340.95 39.0127 339.992 41.0868 338.649 42.9051C336.753 45.4753 334.351 47.6297 331.591 49.2353C331.417 49.3273 331.255 49.4367 331.091 49.5407L330.796 49.7236L330.761 49.742C328.066 51.1232 325.105 51.908 322.08 52.043C319.722 52.1698 317.359 51.9122 315.083 51.2803L315.009 51.2575C314.521 51.1657 314.083 50.8997 313.777 50.509C313.541 50.1922 313.412 49.809 313.407 49.4141C313.403 49.0193 313.523 48.6331 313.751 48.3108C314.003 47.9577 314.36 47.6933 314.772 47.5555C315.183 47.4177 315.628 47.4136 316.041 47.5437C318.777 48.503 321.717 48.7244 324.566 48.1856C326.429 47.8596 328.209 47.1676 329.804 46.1498C331.298 45.2364 332.683 44.1543 333.93 42.9246C335.508 41.2982 336.699 39.3375 337.416 37.188L337.5 36.9514C337.627 36.56 337.774 36.1755 337.941 35.7995C338.042 35.5702 338.188 35.3633 338.371 35.1911C338.553 35.0189 338.768 34.8848 339.002 34.7965C339.248 34.7084 339.508 34.6698 339.768 34.6831C340.028 34.6964 340.283 34.7613 340.518 34.8741C340.884 35.026 341.183 35.3068 341.357 35.6635C341.53 36.0202 341.568 36.4281 341.462 36.8104Z" fill="white"/>
<path d="M315.103 39.9357C315.006 40.1202 314.855 40.271 314.67 40.3685C314.486 40.4659 314.276 40.5056 314.068 40.4823L313.436 40.4733C313.063 40.4749 312.69 40.4764 312.319 40.4738C310.896 40.4674 309.757 41.0652 308.833 42.3147C308.268 43.0828 307.818 43.7181 307.421 44.3224C307.351 44.4311 307.276 44.5359 307.201 44.6406C307.09 44.8045 306.942 44.9402 306.769 45.0368C306.574 45.1385 306.35 45.1722 306.134 45.1324C305.924 45.0886 305.732 44.9798 305.587 44.8214C305.442 44.6631 305.35 44.463 305.325 44.2497C305.137 43.4084 305.124 42.5374 305.287 41.6909C305.635 39.7923 306.605 38.3437 308.087 37.4684L308.112 37.4556C309.083 36.9403 310.186 36.7274 311.279 36.8443C312.373 36.9611 313.406 37.4024 314.246 38.1114C314.457 38.2864 314.658 38.4735 314.847 38.6718C315.03 38.8203 315.155 39.0274 315.202 39.2579C315.248 39.4884 315.214 39.728 315.103 39.9357Z" fill="white"/>
<path d="M340.562 26.4901C340.477 26.6876 340.333 26.8537 340.15 26.9649C339.966 27.0761 339.752 27.1267 339.538 27.1097C338.919 27.0936 338.309 27.1004 337.698 27.1004C337.038 27.098 336.386 27.2573 335.801 27.5644C335.216 27.8715 334.716 28.3172 334.343 28.8625C333.847 29.5151 333.375 30.2065 332.917 30.8773L332.687 31.2148C332.568 31.4048 332.404 31.563 332.21 31.6757C332.006 31.7832 331.77 31.8116 331.546 31.7556C331.327 31.7067 331.131 31.5876 330.986 31.4165C330.841 31.2453 330.756 31.0315 330.744 30.8076C330.313 28.1925 331.064 26.0706 332.971 24.4872C333.126 24.366 333.289 24.2567 333.461 24.1603L333.643 24.064L333.694 24.0371C334.795 23.4846 336.051 23.3174 337.258 23.5623C338.466 23.8071 339.557 24.4499 340.357 25.3878C340.495 25.5314 340.588 25.7123 340.624 25.9082C340.661 26.1042 340.639 26.3065 340.562 26.4901Z" fill="white"/>
<rect x="41" width="74" height="74" rx="10" fill="#7187A5"/>
<path d="M95.4617 36.8104C94.9497 39.0127 93.9924 41.0868 92.6486 42.9051C90.7533 45.4753 88.3514 47.6297 85.5911 49.2353C85.4168 49.3273 85.2551 49.4367 85.0906 49.5407L84.7962 49.7236L84.7614 49.742C82.0663 51.1232 79.1054 51.908 76.08 52.043C73.7217 52.1698 71.3585 51.9122 69.0829 51.2803L69.0092 51.2575C68.5213 51.1657 68.0835 50.8997 67.7772 50.509C67.5414 50.1922 67.412 49.809 67.4073 49.4141C67.4027 49.0193 67.523 48.6331 67.7513 48.3108C68.0032 47.9577 68.3604 47.6933 68.7718 47.5555C69.1832 47.4177 69.6276 47.4136 70.0414 47.5437C72.7772 48.503 75.7174 48.7244 78.5659 48.1856C80.4292 47.8596 82.2094 47.1676 83.8038 46.1498C85.2983 45.2364 86.6828 44.1543 87.93 42.9246C89.5077 41.2982 90.699 39.3375 91.4157 37.188L91.5 36.9514C91.6268 36.56 91.7739 36.1755 91.941 35.7995C92.0423 35.5702 92.1884 35.3633 92.3707 35.1911C92.5529 35.0189 92.7677 34.8848 93.0024 34.7965C93.2475 34.7084 93.5077 34.6698 93.7679 34.6831C94.0281 34.6964 94.283 34.7613 94.5179 34.8741C94.8844 35.026 95.1828 35.3068 95.3566 35.6635C95.5304 36.0202 95.5678 36.4281 95.4617 36.8104Z" fill="white"/>
<path d="M69.1035 39.9357C69.0057 40.1202 68.8548 40.271 68.6702 40.3685C68.4856 40.4659 68.2759 40.5056 68.0685 40.4823L67.4362 40.4733C67.0632 40.4749 66.6902 40.4764 66.3185 40.4738C64.8955 40.4674 63.7572 41.0652 62.8329 42.3147C62.2681 43.0828 61.8183 43.7181 61.4208 44.3224C61.3513 44.4311 61.2763 44.5359 61.2014 44.6406C61.0901 44.8045 60.9422 44.9402 60.7693 45.0368C60.5741 45.1385 60.3505 45.1722 60.134 45.1324C59.9236 45.0886 59.7323 44.9798 59.5871 44.8214C59.4419 44.6631 59.3502 44.463 59.3249 44.2497C59.1369 43.4084 59.1239 42.5374 59.2869 41.6909C59.6352 39.7923 60.6053 38.3437 62.0874 37.4684L62.1115 37.4556C63.0828 36.9403 64.186 36.7274 65.2793 36.8443C66.3725 36.9611 67.4058 37.4024 68.2463 38.1114C68.4573 38.2864 68.658 38.4735 68.8474 38.6718C69.0298 38.8203 69.155 39.0274 69.2017 39.2579C69.2484 39.4884 69.2137 39.728 69.1035 39.9357Z" fill="white"/>
<path d="M94.5617 26.4901C94.4775 26.6876 94.3333 26.8537 94.1496 26.9649C93.9659 27.0761 93.7519 27.1267 93.5379 27.1097C92.919 27.0936 92.3088 27.1004 91.6984 27.1004C91.0377 27.098 90.3864 27.2573 89.8015 27.5644C89.2165 27.8715 88.7156 28.3172 88.3425 28.8625C87.847 29.5151 87.3755 30.2065 86.917 30.8773L86.6872 31.2148C86.568 31.4048 86.4044 31.563 86.2105 31.6757C86.0065 31.7832 85.77 31.8116 85.5463 31.7556C85.3275 31.7067 85.1306 31.5876 84.9857 31.4165C84.8409 31.2453 84.7559 31.0315 84.7439 30.8076C84.3126 28.1925 85.0643 26.0706 86.9714 24.4872C87.1259 24.366 87.2895 24.2567 87.4606 24.1603L87.6429 24.064L87.6938 24.0371C88.7955 23.4846 90.0505 23.3174 91.2584 23.5623C92.4663 23.8071 93.5572 24.4499 94.3568 25.3878C94.495 25.5314 94.5881 25.7123 94.6245 25.9082C94.6609 26.1042 94.6391 26.3065 94.5617 26.4901Z" fill="white"/>
<rect x="164" y="82" width="74" height="74" rx="10" fill="#7187A5"/>
<path d="M218.462 118.81C217.95 121.013 216.992 123.087 215.649 124.905C213.753 127.475 211.351 129.63 208.591 131.235C208.417 131.327 208.255 131.437 208.091 131.541L207.796 131.724L207.761 131.742C205.066 133.123 202.105 133.908 199.08 134.043C196.722 134.17 194.359 133.912 192.083 133.28L192.009 133.258C191.521 133.166 191.083 132.9 190.777 132.509C190.541 132.192 190.412 131.809 190.407 131.414C190.403 131.019 190.523 130.633 190.751 130.311C191.003 129.958 191.36 129.693 191.772 129.555C192.183 129.418 192.628 129.414 193.041 129.544C195.777 130.503 198.717 130.724 201.566 130.186C203.429 129.86 205.209 129.168 206.804 128.15C208.298 127.236 209.683 126.154 210.93 124.925C212.508 123.298 213.699 121.338 214.416 119.188L214.5 118.951C214.627 118.56 214.774 118.176 214.941 117.8C215.042 117.57 215.188 117.363 215.371 117.191C215.553 117.019 215.768 116.885 216.002 116.797C216.248 116.708 216.508 116.67 216.768 116.683C217.028 116.696 217.283 116.761 217.518 116.874C217.884 117.026 218.183 117.307 218.357 117.663C218.53 118.02 218.568 118.428 218.462 118.81Z" fill="white"/>
<path d="M192.103 121.936C192.006 122.12 191.855 122.271 191.67 122.368C191.486 122.466 191.276 122.506 191.068 122.482L190.436 122.473C190.063 122.475 189.69 122.476 189.319 122.474C187.896 122.467 186.757 123.065 185.833 124.315C185.268 125.083 184.818 125.718 184.421 126.322C184.351 126.431 184.276 126.536 184.201 126.641C184.09 126.805 183.942 126.94 183.769 127.037C183.574 127.139 183.35 127.172 183.134 127.132C182.924 127.089 182.732 126.98 182.587 126.821C182.442 126.663 182.35 126.463 182.325 126.25C182.137 125.408 182.124 124.537 182.287 123.691C182.635 121.792 183.605 120.344 185.087 119.468L185.112 119.456C186.083 118.94 187.186 118.727 188.279 118.844C189.373 118.961 190.406 119.402 191.246 120.111C191.457 120.286 191.658 120.474 191.847 120.672C192.03 120.82 192.155 121.027 192.202 121.258C192.248 121.488 192.214 121.728 192.103 121.936Z" fill="white"/>
<path d="M217.562 108.49C217.477 108.688 217.333 108.854 217.15 108.965C216.966 109.076 216.752 109.127 216.538 109.11C215.919 109.094 215.309 109.1 214.698 109.1C214.038 109.098 213.386 109.257 212.801 109.564C212.216 109.872 211.716 110.317 211.343 110.862C210.847 111.515 210.375 112.207 209.917 112.877L209.687 113.215C209.568 113.405 209.404 113.563 209.21 113.676C209.006 113.783 208.77 113.812 208.546 113.756C208.327 113.707 208.131 113.588 207.986 113.416C207.841 113.245 207.756 113.032 207.744 112.808C207.313 110.192 208.064 108.071 209.971 106.487C210.126 106.366 210.289 106.257 210.461 106.16L210.643 106.064L210.694 106.037C211.795 105.485 213.051 105.317 214.258 105.562C215.466 105.807 216.557 106.45 217.357 107.388C217.495 107.531 217.588 107.712 217.624 107.908C217.661 108.104 217.639 108.306 217.562 108.49Z" fill="white"/>
<rect x="246" y="82" width="74" height="74" rx="10" fill="#7187A5"/>
<path d="M300.462 118.81C299.95 121.013 298.992 123.087 297.649 124.905C295.753 127.475 293.351 129.63 290.591 131.235C290.417 131.327 290.255 131.437 290.091 131.541L289.796 131.724L289.761 131.742C287.066 133.123 284.105 133.908 281.08 134.043C278.722 134.17 276.359 133.912 274.083 133.28L274.009 133.258C273.521 133.166 273.083 132.9 272.777 132.509C272.541 132.192 272.412 131.809 272.407 131.414C272.403 131.019 272.523 130.633 272.751 130.311C273.003 129.958 273.36 129.693 273.772 129.555C274.183 129.418 274.628 129.414 275.041 129.544C277.777 130.503 280.717 130.724 283.566 130.186C285.429 129.86 287.209 129.168 288.804 128.15C290.298 127.236 291.683 126.154 292.93 124.925C294.508 123.298 295.699 121.338 296.416 119.188L296.5 118.951C296.627 118.56 296.774 118.176 296.941 117.8C297.042 117.57 297.188 117.363 297.371 117.191C297.553 117.019 297.768 116.885 298.002 116.797C298.248 116.708 298.508 116.67 298.768 116.683C299.028 116.696 299.283 116.761 299.518 116.874C299.884 117.026 300.183 117.307 300.357 117.663C300.53 118.02 300.568 118.428 300.462 118.81Z" fill="white"/>
<path d="M274.103 121.936C274.006 122.12 273.855 122.271 273.67 122.368C273.486 122.466 273.276 122.506 273.068 122.482L272.436 122.473C272.063 122.475 271.69 122.476 271.319 122.474C269.896 122.467 268.757 123.065 267.833 124.315C267.268 125.083 266.818 125.718 266.421 126.322C266.351 126.431 266.276 126.536 266.201 126.641C266.09 126.805 265.942 126.94 265.769 127.037C265.574 127.139 265.35 127.172 265.134 127.132C264.924 127.089 264.732 126.98 264.587 126.821C264.442 126.663 264.35 126.463 264.325 126.25C264.137 125.408 264.124 124.537 264.287 123.691C264.635 121.792 265.605 120.344 267.087 119.468L267.112 119.456C268.083 118.94 269.186 118.727 270.279 118.844C271.373 118.961 272.406 119.402 273.246 120.111C273.457 120.286 273.658 120.474 273.847 120.672C274.03 120.82 274.155 121.027 274.202 121.258C274.248 121.488 274.214 121.728 274.103 121.936Z" fill="white"/>
<path d="M299.562 108.49C299.477 108.688 299.333 108.854 299.15 108.965C298.966 109.076 298.752 109.127 298.538 109.11C297.919 109.094 297.309 109.1 296.698 109.1C296.038 109.098 295.386 109.257 294.801 109.564C294.216 109.872 293.716 110.317 293.343 110.862C292.847 111.515 292.375 112.207 291.917 112.877L291.687 113.215C291.568 113.405 291.404 113.563 291.21 113.676C291.006 113.783 290.77 113.812 290.546 113.756C290.327 113.707 290.131 113.588 289.986 113.416C289.841 113.245 289.756 113.032 289.744 112.808C289.313 110.192 290.064 108.071 291.971 106.487C292.126 106.366 292.289 106.257 292.461 106.16L292.643 106.064L292.694 106.037C293.795 105.485 295.051 105.317 296.258 105.562C297.466 105.807 298.557 106.45 299.357 107.388C299.495 107.531 299.588 107.712 299.624 107.908C299.661 108.104 299.639 108.306 299.562 108.49Z" fill="white"/>
<rect x="328" y="82" width="74" height="74" rx="10" fill="#7187A5"/>
<path d="M382.462 118.81C381.95 121.013 380.992 123.087 379.649 124.905C377.753 127.475 375.351 129.63 372.591 131.235C372.417 131.327 372.255 131.437 372.091 131.541L371.796 131.724L371.761 131.742C369.066 133.123 366.105 133.908 363.08 134.043C360.722 134.17 358.359 133.912 356.083 133.28L356.009 133.258C355.521 133.166 355.083 132.9 354.777 132.509C354.541 132.192 354.412 131.809 354.407 131.414C354.403 131.019 354.523 130.633 354.751 130.311C355.003 129.958 355.36 129.693 355.772 129.555C356.183 129.418 356.628 129.414 357.041 129.544C359.777 130.503 362.717 130.724 365.566 130.186C367.429 129.86 369.209 129.168 370.804 128.15C372.298 127.236 373.683 126.154 374.93 124.925C376.508 123.298 377.699 121.338 378.416 119.188L378.5 118.951C378.627 118.56 378.774 118.176 378.941 117.8C379.042 117.57 379.188 117.363 379.371 117.191C379.553 117.019 379.768 116.885 380.002 116.797C380.248 116.708 380.508 116.67 380.768 116.683C381.028 116.696 381.283 116.761 381.518 116.874C381.884 117.026 382.183 117.307 382.357 117.663C382.53 118.02 382.568 118.428 382.462 118.81Z" fill="white"/>
<path d="M356.103 121.936C356.006 122.12 355.855 122.271 355.67 122.368C355.486 122.466 355.276 122.506 355.068 122.482L354.436 122.473C354.063 122.475 353.69 122.476 353.319 122.474C351.896 122.467 350.757 123.065 349.833 124.315C349.268 125.083 348.818 125.718 348.421 126.322C348.351 126.431 348.276 126.536 348.201 126.641C348.09 126.805 347.942 126.94 347.769 127.037C347.574 127.139 347.35 127.172 347.134 127.132C346.924 127.089 346.732 126.98 346.587 126.821C346.442 126.663 346.35 126.463 346.325 126.25C346.137 125.408 346.124 124.537 346.287 123.691C346.635 121.792 347.605 120.344 349.087 119.468L349.112 119.456C350.083 118.94 351.186 118.727 352.279 118.844C353.373 118.961 354.406 119.402 355.246 120.111C355.457 120.286 355.658 120.474 355.847 120.672C356.03 120.82 356.155 121.027 356.202 121.258C356.248 121.488 356.214 121.728 356.103 121.936Z" fill="white"/>
<path d="M381.562 108.49C381.477 108.688 381.333 108.854 381.15 108.965C380.966 109.076 380.752 109.127 380.538 109.11C379.919 109.094 379.309 109.1 378.698 109.1C378.038 109.098 377.386 109.257 376.801 109.564C376.216 109.872 375.716 110.317 375.343 110.862C374.847 111.515 374.375 112.207 373.917 112.877L373.687 113.215C373.568 113.405 373.404 113.563 373.21 113.676C373.006 113.783 372.77 113.812 372.546 113.756C372.327 113.707 372.131 113.588 371.986 113.416C371.841 113.245 371.756 113.032 371.744 112.808C371.313 110.192 372.064 108.071 373.971 106.487C374.126 106.366 374.289 106.257 374.461 106.16L374.643 106.064L374.694 106.037C375.795 105.485 377.051 105.317 378.258 105.562C379.466 105.807 380.557 106.45 381.357 107.388C381.495 107.531 381.588 107.712 381.624 107.908C381.661 108.104 381.639 108.306 381.562 108.49Z" fill="white"/>
<rect x="82" y="82" width="74" height="74" rx="10" fill="#7187A5"/>
<path d="M136.462 118.81C135.95 121.013 134.992 123.087 133.649 124.905C131.753 127.475 129.351 129.63 126.591 131.235C126.417 131.327 126.255 131.437 126.091 131.541L125.796 131.724L125.761 131.742C123.066 133.123 120.105 133.908 117.08 134.043C114.722 134.17 112.359 133.912 110.083 133.28L110.009 133.258C109.521 133.166 109.083 132.9 108.777 132.509C108.541 132.192 108.412 131.809 108.407 131.414C108.403 131.019 108.523 130.633 108.751 130.311C109.003 129.958 109.36 129.693 109.772 129.555C110.183 129.418 110.628 129.414 111.041 129.544C113.777 130.503 116.717 130.724 119.566 130.186C121.429 129.86 123.209 129.168 124.804 128.15C126.298 127.236 127.683 126.154 128.93 124.925C130.508 123.298 131.699 121.338 132.416 119.188L132.5 118.951C132.627 118.56 132.774 118.176 132.941 117.8C133.042 117.57 133.188 117.363 133.371 117.191C133.553 117.019 133.768 116.885 134.002 116.797C134.248 116.708 134.508 116.67 134.768 116.683C135.028 116.696 135.283 116.761 135.518 116.874C135.884 117.026 136.183 117.307 136.357 117.663C136.53 118.02 136.568 118.428 136.462 118.81Z" fill="white"/>
<path d="M110.103 121.936C110.006 122.12 109.855 122.271 109.67 122.368C109.486 122.466 109.276 122.506 109.068 122.482L108.436 122.473C108.063 122.475 107.69 122.476 107.319 122.474C105.896 122.467 104.757 123.065 103.833 124.315C103.268 125.083 102.818 125.718 102.421 126.322C102.351 126.431 102.276 126.536 102.201 126.641C102.09 126.805 101.942 126.94 101.769 127.037C101.574 127.139 101.35 127.172 101.134 127.132C100.924 127.089 100.732 126.98 100.587 126.821C100.442 126.663 100.35 126.463 100.325 126.25C100.137 125.408 100.124 124.537 100.287 123.691C100.635 121.792 101.605 120.344 103.087 119.468L103.112 119.456C104.083 118.94 105.186 118.727 106.279 118.844C107.373 118.961 108.406 119.402 109.246 120.111C109.457 120.286 109.658 120.474 109.847 120.672C110.03 120.82 110.155 121.027 110.202 121.258C110.248 121.488 110.214 121.728 110.103 121.936Z" fill="white"/>
<path d="M135.562 108.49C135.477 108.688 135.333 108.854 135.15 108.965C134.966 109.076 134.752 109.127 134.538 109.11C133.919 109.094 133.309 109.1 132.698 109.1C132.038 109.098 131.386 109.257 130.801 109.564C130.216 109.872 129.716 110.317 129.343 110.862C128.847 111.515 128.375 112.207 127.917 112.877L127.687 113.215C127.568 113.405 127.404 113.563 127.21 113.676C127.006 113.783 126.77 113.812 126.546 113.756C126.327 113.707 126.131 113.588 125.986 113.416C125.841 113.245 125.756 113.032 125.744 112.808C125.313 110.192 126.064 108.071 127.971 106.487C128.126 106.366 128.289 106.257 128.461 106.16L128.643 106.064L128.694 106.037C129.795 105.485 131.051 105.317 132.258 105.562C133.466 105.807 134.557 106.45 135.357 107.388C135.495 107.531 135.588 107.712 135.624 107.908C135.661 108.104 135.639 108.306 135.562 108.49Z" fill="white"/>
<rect y="82" width="74" height="74" rx="10" fill="#7187A5"/>
<path d="M54.4617 118.81C53.9497 121.013 52.9924 123.087 51.6486 124.905C49.7533 127.475 47.3514 129.63 44.5911 131.235C44.4168 131.327 44.2551 131.437 44.0906 131.541L43.7962 131.724L43.7614 131.742C41.0663 133.123 38.1054 133.908 35.08 134.043C32.7217 134.17 30.3585 133.912 28.0829 133.28L28.0092 133.258C27.5213 133.166 27.0835 132.9 26.7772 132.509C26.5414 132.192 26.412 131.809 26.4073 131.414C26.4027 131.019 26.523 130.633 26.7513 130.311C27.0032 129.958 27.3604 129.693 27.7718 129.555C28.1832 129.418 28.6276 129.414 29.0414 129.544C31.7772 130.503 34.7174 130.724 37.5659 130.186C39.4292 129.86 41.2094 129.168 42.8038 128.15C44.2983 127.236 45.6828 126.154 46.93 124.925C48.5077 123.298 49.699 121.338 50.4157 119.188L50.5 118.951C50.6268 118.56 50.7739 118.176 50.941 117.8C51.0423 117.57 51.1884 117.363 51.3707 117.191C51.5529 117.019 51.7677 116.885 52.0024 116.797C52.2475 116.708 52.5077 116.67 52.7679 116.683C53.0281 116.696 53.283 116.761 53.5179 116.874C53.8844 117.026 54.1828 117.307 54.3566 117.663C54.5304 118.02 54.5678 118.428 54.4617 118.81Z" fill="white"/>
<path d="M28.1035 121.936C28.0057 122.12 27.8548 122.271 27.6702 122.368C27.4856 122.466 27.2759 122.506 27.0685 122.482L26.4362 122.473C26.0632 122.475 25.6902 122.476 25.3185 122.474C23.8955 122.467 22.7572 123.065 21.8329 124.315C21.2681 125.083 20.8183 125.718 20.4208 126.322C20.3513 126.431 20.2763 126.536 20.2014 126.641C20.0901 126.805 19.9422 126.94 19.7693 127.037C19.5741 127.139 19.3505 127.172 19.134 127.132C18.9236 127.089 18.7323 126.98 18.5871 126.821C18.4419 126.663 18.3502 126.463 18.3249 126.25C18.1369 125.408 18.1239 124.537 18.2869 123.691C18.6352 121.792 19.6053 120.344 21.0874 119.468L21.1115 119.456C22.0828 118.94 23.186 118.727 24.2793 118.844C25.3725 118.961 26.4058 119.402 27.2463 120.111C27.4573 120.286 27.658 120.474 27.8474 120.672C28.0298 120.82 28.155 121.027 28.2017 121.258C28.2484 121.488 28.2137 121.728 28.1035 121.936Z" fill="white"/>
<path d="M53.5617 108.49C53.4775 108.688 53.3333 108.854 53.1496 108.965C52.9659 109.076 52.7519 109.127 52.5379 109.11C51.919 109.094 51.3088 109.1 50.6984 109.1C50.0377 109.098 49.3864 109.257 48.8015 109.564C48.2165 109.872 47.7156 110.317 47.3425 110.862C46.847 111.515 46.3755 112.207 45.917 112.877L45.6872 113.215C45.568 113.405 45.4044 113.563 45.2105 113.676C45.0065 113.783 44.77 113.812 44.5463 113.756C44.3275 113.707 44.1306 113.588 43.9857 113.416C43.8409 113.245 43.7559 113.032 43.7439 112.808C43.3126 110.192 44.0643 108.071 45.9714 106.487C46.1259 106.366 46.2895 106.257 46.4606 106.16L46.6429 106.064L46.6938 106.037C47.7955 105.485 49.0505 105.317 50.2584 105.562C51.4663 105.807 52.5572 106.45 53.3568 107.388C53.495 107.531 53.5881 107.712 53.6245 107.908C53.6609 108.104 53.6391 108.306 53.5617 108.49Z" fill="white"/>
<rect x="123" y="164" width="74" height="74" rx="10" fill="#7187A5"/>
<path d="M177.462 200.81C176.95 203.013 175.992 205.087 174.649 206.905C172.753 209.475 170.351 211.63 167.591 213.235C167.417 213.327 167.255 213.437 167.091 213.541L166.796 213.724L166.761 213.742C164.066 215.123 161.105 215.908 158.08 216.043C155.722 216.17 153.359 215.912 151.083 215.28L151.009 215.258C150.521 215.166 150.083 214.9 149.777 214.509C149.541 214.192 149.412 213.809 149.407 213.414C149.403 213.019 149.523 212.633 149.751 212.311C150.003 211.958 150.36 211.693 150.772 211.555C151.183 211.418 151.628 211.414 152.041 211.544C154.777 212.503 157.717 212.724 160.566 212.186C162.429 211.86 164.209 211.168 165.804 210.15C167.298 209.236 168.683 208.154 169.93 206.925C171.508 205.298 172.699 203.338 173.416 201.188L173.5 200.951C173.627 200.56 173.774 200.176 173.941 199.8C174.042 199.57 174.188 199.363 174.371 199.191C174.553 199.019 174.768 198.885 175.002 198.797C175.248 198.708 175.508 198.67 175.768 198.683C176.028 198.696 176.283 198.761 176.518 198.874C176.884 199.026 177.183 199.307 177.357 199.663C177.53 200.02 177.568 200.428 177.462 200.81Z" fill="white"/>
<path d="M151.103 203.936C151.006 204.12 150.855 204.271 150.67 204.368C150.486 204.466 150.276 204.506 150.068 204.482L149.436 204.473C149.063 204.475 148.69 204.476 148.319 204.474C146.896 204.467 145.757 205.065 144.833 206.315C144.268 207.083 143.818 207.718 143.421 208.322C143.351 208.431 143.276 208.536 143.201 208.641C143.09 208.805 142.942 208.94 142.769 209.037C142.574 209.139 142.35 209.172 142.134 209.132C141.924 209.089 141.732 208.98 141.587 208.821C141.442 208.663 141.35 208.463 141.325 208.25C141.137 207.408 141.124 206.537 141.287 205.691C141.635 203.792 142.605 202.344 144.087 201.468L144.112 201.456C145.083 200.94 146.186 200.727 147.279 200.844C148.373 200.961 149.406 201.402 150.246 202.111C150.457 202.286 150.658 202.474 150.847 202.672C151.03 202.82 151.155 203.027 151.202 203.258C151.248 203.488 151.214 203.728 151.103 203.936Z" fill="white"/>
<path d="M176.562 190.49C176.477 190.688 176.333 190.854 176.15 190.965C175.966 191.076 175.752 191.127 175.538 191.11C174.919 191.094 174.309 191.1 173.698 191.1C173.038 191.098 172.386 191.257 171.801 191.564C171.216 191.872 170.716 192.317 170.343 192.862C169.847 193.515 169.375 194.207 168.917 194.877L168.687 195.215C168.568 195.405 168.404 195.563 168.21 195.676C168.006 195.783 167.77 195.812 167.546 195.756C167.327 195.707 167.131 195.588 166.986 195.416C166.841 195.245 166.756 195.032 166.744 194.808C166.313 192.192 167.064 190.071 168.971 188.487C169.126 188.366 169.289 188.257 169.461 188.16L169.643 188.064L169.694 188.037C170.795 187.485 172.051 187.317 173.258 187.562C174.466 187.807 175.557 188.45 176.357 189.388C176.495 189.531 176.588 189.712 176.624 189.908C176.661 190.104 176.639 190.306 176.562 190.49Z" fill="white"/>
<rect x="205" y="164" width="74" height="74" rx="10" fill="#7187A5"/>
<path d="M259.462 200.81C258.95 203.013 257.992 205.087 256.649 206.905C254.753 209.475 252.351 211.63 249.591 213.235C249.417 213.327 249.255 213.437 249.091 213.541L248.796 213.724L248.761 213.742C246.066 215.123 243.105 215.908 240.08 216.043C237.722 216.17 235.359 215.912 233.083 215.28L233.009 215.258C232.521 215.166 232.083 214.9 231.777 214.509C231.541 214.192 231.412 213.809 231.407 213.414C231.403 213.019 231.523 212.633 231.751 212.311C232.003 211.958 232.36 211.693 232.772 211.555C233.183 211.418 233.628 211.414 234.041 211.544C236.777 212.503 239.717 212.724 242.566 212.186C244.429 211.86 246.209 211.168 247.804 210.15C249.298 209.236 250.683 208.154 251.93 206.925C253.508 205.298 254.699 203.338 255.416 201.188L255.5 200.951C255.627 200.56 255.774 200.176 255.941 199.8C256.042 199.57 256.188 199.363 256.371 199.191C256.553 199.019 256.768 198.885 257.002 198.797C257.248 198.708 257.508 198.67 257.768 198.683C258.028 198.696 258.283 198.761 258.518 198.874C258.884 199.026 259.183 199.307 259.357 199.663C259.53 200.02 259.568 200.428 259.462 200.81Z" fill="white"/>
<path d="M233.103 203.936C233.006 204.12 232.855 204.271 232.67 204.368C232.486 204.466 232.276 204.506 232.068 204.482L231.436 204.473C231.063 204.475 230.69 204.476 230.319 204.474C228.896 204.467 227.757 205.065 226.833 206.315C226.268 207.083 225.818 207.718 225.421 208.322C225.351 208.431 225.276 208.536 225.201 208.641C225.09 208.805 224.942 208.94 224.769 209.037C224.574 209.139 224.35 209.172 224.134 209.132C223.924 209.089 223.732 208.98 223.587 208.821C223.442 208.663 223.35 208.463 223.325 208.25C223.137 207.408 223.124 206.537 223.287 205.691C223.635 203.792 224.605 202.344 226.087 201.468L226.112 201.456C227.083 200.94 228.186 200.727 229.279 200.844C230.373 200.961 231.406 201.402 232.246 202.111C232.457 202.286 232.658 202.474 232.847 202.672C233.03 202.82 233.155 203.027 233.202 203.258C233.248 203.488 233.214 203.728 233.103 203.936Z" fill="white"/>
<path d="M258.562 190.49C258.477 190.688 258.333 190.854 258.15 190.965C257.966 191.076 257.752 191.127 257.538 191.11C256.919 191.094 256.309 191.1 255.698 191.1C255.038 191.098 254.386 191.257 253.801 191.564C253.216 191.872 252.716 192.317 252.343 192.862C251.847 193.515 251.375 194.207 250.917 194.877L250.687 195.215C250.568 195.405 250.404 195.563 250.21 195.676C250.006 195.783 249.77 195.812 249.546 195.756C249.327 195.707 249.131 195.588 248.986 195.416C248.841 195.245 248.756 195.032 248.744 194.808C248.313 192.192 249.064 190.071 250.971 188.487C251.126 188.366 251.289 188.257 251.461 188.16L251.643 188.064L251.694 188.037C252.795 187.485 254.051 187.317 255.258 187.562C256.466 187.807 257.557 188.45 258.357 189.388C258.495 189.531 258.588 189.712 258.624 189.908C258.661 190.104 258.639 190.306 258.562 190.49Z" fill="white"/>
<rect x="287" y="164" width="74" height="74" rx="10" fill="#7187A5"/>
<path d="M341.462 200.81C340.95 203.013 339.992 205.087 338.649 206.905C336.753 209.475 334.351 211.63 331.591 213.235C331.417 213.327 331.255 213.437 331.091 213.541L330.796 213.724L330.761 213.742C328.066 215.123 325.105 215.908 322.08 216.043C319.722 216.17 317.359 215.912 315.083 215.28L315.009 215.258C314.521 215.166 314.083 214.9 313.777 214.509C313.541 214.192 313.412 213.809 313.407 213.414C313.403 213.019 313.523 212.633 313.751 212.311C314.003 211.958 314.36 211.693 314.772 211.555C315.183 211.418 315.628 211.414 316.041 211.544C318.777 212.503 321.717 212.724 324.566 212.186C326.429 211.86 328.209 211.168 329.804 210.15C331.298 209.236 332.683 208.154 333.93 206.925C335.508 205.298 336.699 203.338 337.416 201.188L337.5 200.951C337.627 200.56 337.774 200.176 337.941 199.8C338.042 199.57 338.188 199.363 338.371 199.191C338.553 199.019 338.768 198.885 339.002 198.797C339.248 198.708 339.508 198.67 339.768 198.683C340.028 198.696 340.283 198.761 340.518 198.874C340.884 199.026 341.183 199.307 341.357 199.663C341.53 200.02 341.568 200.428 341.462 200.81Z" fill="white"/>
<path d="M315.103 203.936C315.006 204.12 314.855 204.271 314.67 204.368C314.486 204.466 314.276 204.506 314.068 204.482L313.436 204.473C313.063 204.475 312.69 204.476 312.319 204.474C310.896 204.467 309.757 205.065 308.833 206.315C308.268 207.083 307.818 207.718 307.421 208.322C307.351 208.431 307.276 208.536 307.201 208.641C307.09 208.805 306.942 208.94 306.769 209.037C306.574 209.139 306.35 209.172 306.134 209.132C305.924 209.089 305.732 208.98 305.587 208.821C305.442 208.663 305.35 208.463 305.325 208.25C305.137 207.408 305.124 206.537 305.287 205.691C305.635 203.792 306.605 202.344 308.087 201.468L308.112 201.456C309.083 200.94 310.186 200.727 311.279 200.844C312.373 200.961 313.406 201.402 314.246 202.111C314.457 202.286 314.658 202.474 314.847 202.672C315.03 202.82 315.155 203.027 315.202 203.258C315.248 203.488 315.214 203.728 315.103 203.936Z" fill="white"/>
<path d="M340.562 190.49C340.477 190.688 340.333 190.854 340.15 190.965C339.966 191.076 339.752 191.127 339.538 191.11C338.919 191.094 338.309 191.1 337.698 191.1C337.038 191.098 336.386 191.257 335.801 191.564C335.216 191.872 334.716 192.317 334.343 192.862C333.847 193.515 333.375 194.207 332.917 194.877L332.687 195.215C332.568 195.405 332.404 195.563 332.21 195.676C332.006 195.783 331.77 195.812 331.546 195.756C331.327 195.707 331.131 195.588 330.986 195.416C330.841 195.245 330.756 195.032 330.744 194.808C330.313 192.192 331.064 190.071 332.971 188.487C333.126 188.366 333.289 188.257 333.461 188.16L333.643 188.064L333.694 188.037C334.795 187.485 336.051 187.317 337.258 187.562C338.466 187.807 339.557 188.45 340.357 189.388C340.495 189.531 340.588 189.712 340.624 189.908C340.661 190.104 340.639 190.306 340.562 190.49Z" fill="white"/>
<rect x="41" y="164" width="74" height="74" rx="10" fill="#7187A5"/>
<path d="M95.4617 200.81C94.9497 203.013 93.9924 205.087 92.6486 206.905C90.7533 209.475 88.3514 211.63 85.5911 213.235C85.4168 213.327 85.2551 213.437 85.0906 213.541L84.7962 213.724L84.7614 213.742C82.0663 215.123 79.1054 215.908 76.08 216.043C73.7217 216.17 71.3585 215.912 69.0829 215.28L69.0092 215.258C68.5213 215.166 68.0835 214.9 67.7772 214.509C67.5414 214.192 67.412 213.809 67.4073 213.414C67.4027 213.019 67.523 212.633 67.7513 212.311C68.0032 211.958 68.3604 211.693 68.7718 211.555C69.1832 211.418 69.6276 211.414 70.0414 211.544C72.7772 212.503 75.7174 212.724 78.5659 212.186C80.4292 211.86 82.2094 211.168 83.8038 210.15C85.2983 209.236 86.6828 208.154 87.93 206.925C89.5077 205.298 90.699 203.338 91.4157 201.188L91.5 200.951C91.6268 200.56 91.7739 200.176 91.941 199.8C92.0423 199.57 92.1884 199.363 92.3707 199.191C92.5529 199.019 92.7677 198.885 93.0024 198.797C93.2475 198.708 93.5077 198.67 93.7679 198.683C94.0281 198.696 94.283 198.761 94.5179 198.874C94.8844 199.026 95.1828 199.307 95.3566 199.663C95.5304 200.02 95.5678 200.428 95.4617 200.81Z" fill="white"/>
<path d="M69.1035 203.936C69.0057 204.12 68.8548 204.271 68.6702 204.368C68.4856 204.466 68.2759 204.506 68.0685 204.482L67.4362 204.473C67.0632 204.475 66.6902 204.476 66.3185 204.474C64.8955 204.467 63.7572 205.065 62.8329 206.315C62.2681 207.083 61.8183 207.718 61.4208 208.322C61.3513 208.431 61.2763 208.536 61.2014 208.641C61.0901 208.805 60.9422 208.94 60.7693 209.037C60.5741 209.139 60.3505 209.172 60.134 209.132C59.9236 209.089 59.7323 208.98 59.5871 208.821C59.4419 208.663 59.3502 208.463 59.3249 208.25C59.1369 207.408 59.1239 206.537 59.2869 205.691C59.6352 203.792 60.6053 202.344 62.0874 201.468L62.1115 201.456C63.0828 200.94 64.186 200.727 65.2793 200.844C66.3725 200.961 67.4058 201.402 68.2463 202.111C68.4573 202.286 68.658 202.474 68.8474 202.672C69.0298 202.82 69.155 203.027 69.2017 203.258C69.2484 203.488 69.2137 203.728 69.1035 203.936Z" fill="white"/>
<path d="M94.5617 190.49C94.4775 190.688 94.3333 190.854 94.1496 190.965C93.9659 191.076 93.7519 191.127 93.5379 191.11C92.919 191.094 92.3088 191.1 91.6984 191.1C91.0377 191.098 90.3864 191.257 89.8015 191.564C89.2165 191.872 88.7156 192.317 88.3425 192.862C87.847 193.515 87.3755 194.207 86.917 194.877L86.6872 195.215C86.568 195.405 86.4044 195.563 86.2105 195.676C86.0065 195.783 85.77 195.812 85.5463 195.756C85.3275 195.707 85.1306 195.588 84.9857 195.416C84.8409 195.245 84.7559 195.032 84.7439 194.808C84.3126 192.192 85.0643 190.071 86.9714 188.487C87.1259 188.366 87.2895 188.257 87.4606 188.16L87.6429 188.064L87.6938 188.037C88.7955 187.485 90.0505 187.317 91.2584 187.562C92.4663 187.807 93.5572 188.45 94.3568 189.388C94.495 189.531 94.5881 189.712 94.6245 189.908C94.6609 190.104 94.6391 190.306 94.5617 190.49Z" fill="white"/>
</svg>
