<svg width="225" height="247" viewBox="0 0 225 247" fill="none" xmlns="http://www.w3.org/2000/svg">
<rect width="5" height="5" rx="2.5" fill="#B0CEF7"/>
<rect x="22" width="5" height="5" rx="2.5" fill="#B0CEF7"/>
<rect x="44" width="5" height="5" rx="2.5" fill="#B0CEF7"/>
<rect x="66" width="5" height="5" rx="2.5" fill="#B0CEF7"/>
<rect x="88" width="5" height="5" rx="2.5" fill="#B0CEF7"/>
<rect x="110" width="5" height="5" rx="2.5" fill="#B0CEF7"/>
<rect x="132" width="5" height="5" rx="2.5" fill="#B0CEF7"/>
<rect x="154" width="5" height="5" rx="2.5" fill="#B0CEF7"/>
<rect x="176" width="5" height="5" rx="2.5" fill="#B0CEF7"/>
<rect x="198" width="5" height="5" rx="2.5" fill="#B0CEF7"/>
<rect x="220" width="5" height="5" rx="2.5" fill="#B0CEF7"/>
<rect y="22" width="5" height="5" rx="2.5" fill="#B0CEF7"/>
<rect x="22" y="22" width="5" height="5" rx="2.5" fill="#B0CEF7"/>
<rect x="44" y="22" width="5" height="5" rx="2.5" fill="#B0CEF7"/>
<rect x="66" y="22" width="5" height="5" rx="2.5" fill="#B0CEF7"/>
<rect x="88" y="22" width="5" height="5" rx="2.5" fill="#B0CEF7"/>
<rect x="110" y="22" width="5" height="5" rx="2.5" fill="#B0CEF7"/>
<rect x="132" y="22" width="5" height="5" rx="2.5" fill="#B0CEF7"/>
<rect x="154" y="22" width="5" height="5" rx="2.5" fill="#B0CEF7"/>
<rect x="176" y="22" width="5" height="5" rx="2.5" fill="#B0CEF7"/>
<rect x="198" y="22" width="5" height="5" rx="2.5" fill="#B0CEF7"/>
<rect x="220" y="22" width="5" height="5" rx="2.5" fill="#B0CEF7"/>
<rect y="44" width="5" height="5" rx="2.5" fill="#B0CEF7"/>
<rect x="22" y="44" width="5" height="5" rx="2.5" fill="#B0CEF7"/>
<rect x="44" y="44" width="5" height="5" rx="2.5" fill="#B0CEF7"/>
<rect x="66" y="44" width="5" height="5" rx="2.5" fill="#B0CEF7"/>
<rect x="88" y="44" width="5" height="5" rx="2.5" fill="#B0CEF7"/>
<rect x="110" y="44" width="5" height="5" rx="2.5" fill="#B0CEF7"/>
<rect x="132" y="44" width="5" height="5" rx="2.5" fill="#B0CEF7"/>
<rect x="154" y="44" width="5" height="5" rx="2.5" fill="#B0CEF7"/>
<rect x="176" y="44" width="5" height="5" rx="2.5" fill="#B0CEF7"/>
<rect x="198" y="44" width="5" height="5" rx="2.5" fill="#B0CEF7"/>
<rect x="220" y="44" width="5" height="5" rx="2.5" fill="#B0CEF7"/>
<rect y="66" width="5" height="5" rx="2.5" fill="#B0CEF7"/>
<rect x="22" y="66" width="5" height="5" rx="2.5" fill="#B0CEF7"/>
<rect x="44" y="66" width="5" height="5" rx="2.5" fill="#B0CEF7"/>
<rect x="66" y="66" width="5" height="5" rx="2.5" fill="#B0CEF7"/>
<rect x="88" y="66" width="5" height="5" rx="2.5" fill="#B0CEF7"/>
<rect x="110" y="66" width="5" height="5" rx="2.5" fill="#B0CEF7"/>
<rect x="132" y="66" width="5" height="5" rx="2.5" fill="#B0CEF7"/>
<rect x="154" y="66" width="5" height="5" rx="2.5" fill="#B0CEF7"/>
<rect x="176" y="66" width="5" height="5" rx="2.5" fill="#B0CEF7"/>
<rect x="198" y="66" width="5" height="5" rx="2.5" fill="#B0CEF7"/>
<rect x="220" y="66" width="5" height="5" rx="2.5" fill="#B0CEF7"/>
<rect y="88" width="5" height="5" rx="2.5" fill="#B0CEF7"/>
<rect x="22" y="88" width="5" height="5" rx="2.5" fill="#B0CEF7"/>
<rect x="44" y="88" width="5" height="5" rx="2.5" fill="#B0CEF7"/>
<rect x="66" y="88" width="5" height="5" rx="2.5" fill="#B0CEF7"/>
<rect x="88" y="88" width="5" height="5" rx="2.5" fill="#B0CEF7"/>
<rect x="110" y="88" width="5" height="5" rx="2.5" fill="#B0CEF7"/>
<rect x="132" y="88" width="5" height="5" rx="2.5" fill="#B0CEF7"/>
<rect x="154" y="88" width="5" height="5" rx="2.5" fill="#B0CEF7"/>
<rect x="176" y="88" width="5" height="5" rx="2.5" fill="#B0CEF7"/>
<rect x="198" y="88" width="5" height="5" rx="2.5" fill="#B0CEF7"/>
<rect x="220" y="88" width="5" height="5" rx="2.5" fill="#B0CEF7"/>
<rect y="110" width="5" height="5" rx="2.5" fill="#B0CEF7"/>
<rect x="22" y="110" width="5" height="5" rx="2.5" fill="#B0CEF7"/>
<rect x="44" y="110" width="5" height="5" rx="2.5" fill="#B0CEF7"/>
<rect x="66" y="110" width="5" height="5" rx="2.5" fill="#B0CEF7"/>
<rect x="88" y="110" width="5" height="5" rx="2.5" fill="#B0CEF7"/>
<rect x="110" y="110" width="5" height="5" rx="2.5" fill="#B0CEF7"/>
<rect x="132" y="110" width="5" height="5" rx="2.5" fill="#B0CEF7"/>
<rect x="154" y="110" width="5" height="5" rx="2.5" fill="#B0CEF7"/>
<rect x="176" y="110" width="5" height="5" rx="2.5" fill="#B0CEF7"/>
<rect x="198" y="110" width="5" height="5" rx="2.5" fill="#B0CEF7"/>
<rect x="220" y="110" width="5" height="5" rx="2.5" fill="#B0CEF7"/>
<rect y="132" width="5" height="5" rx="2.5" fill="#B0CEF7"/>
<rect x="22" y="132" width="5" height="5" rx="2.5" fill="#B0CEF7"/>
<rect x="44" y="132" width="5" height="5" rx="2.5" fill="#B0CEF7"/>
<rect x="66" y="132" width="5" height="5" rx="2.5" fill="#B0CEF7"/>
<rect x="88" y="132" width="5" height="5" rx="2.5" fill="#B0CEF7"/>
<rect x="110" y="132" width="5" height="5" rx="2.5" fill="#B0CEF7"/>
<rect x="132" y="132" width="5" height="5" rx="2.5" fill="#B0CEF7"/>
<rect x="154" y="132" width="5" height="5" rx="2.5" fill="#B0CEF7"/>
<rect x="176" y="132" width="5" height="5" rx="2.5" fill="#B0CEF7"/>
<rect x="198" y="132" width="5" height="5" rx="2.5" fill="#B0CEF7"/>
<rect x="220" y="132" width="5" height="5" rx="2.5" fill="#B0CEF7"/>
<rect y="154" width="5" height="5" rx="2.5" fill="#B0CEF7"/>
<rect x="22" y="154" width="5" height="5" rx="2.5" fill="#B0CEF7"/>
<rect x="44" y="154" width="5" height="5" rx="2.5" fill="#B0CEF7"/>
<rect x="66" y="154" width="5" height="5" rx="2.5" fill="#B0CEF7"/>
<rect x="88" y="154" width="5" height="5" rx="2.5" fill="#B0CEF7"/>
<rect x="110" y="154" width="5" height="5" rx="2.5" fill="#B0CEF7"/>
<rect x="132" y="154" width="5" height="5" rx="2.5" fill="#B0CEF7"/>
<rect x="154" y="154" width="5" height="5" rx="2.5" fill="#B0CEF7"/>
<rect x="176" y="154" width="5" height="5" rx="2.5" fill="#B0CEF7"/>
<rect x="198" y="154" width="5" height="5" rx="2.5" fill="#B0CEF7"/>
<rect x="220" y="154" width="5" height="5" rx="2.5" fill="#B0CEF7"/>
<rect y="176" width="5" height="5" rx="2.5" fill="#B0CEF7"/>
<rect x="22" y="176" width="5" height="5" rx="2.5" fill="#B0CEF7"/>
<rect x="44" y="176" width="5" height="5" rx="2.5" fill="#B0CEF7"/>
<rect x="66" y="176" width="5" height="5" rx="2.5" fill="#B0CEF7"/>
<rect x="88" y="176" width="5" height="5" rx="2.5" fill="#B0CEF7"/>
<rect x="110" y="176" width="5" height="5" rx="2.5" fill="#B0CEF7"/>
<rect x="132" y="176" width="5" height="5" rx="2.5" fill="#B0CEF7"/>
<rect x="154" y="176" width="5" height="5" rx="2.5" fill="#B0CEF7"/>
<rect x="176" y="176" width="5" height="5" rx="2.5" fill="#B0CEF7"/>
<rect x="198" y="176" width="5" height="5" rx="2.5" fill="#B0CEF7"/>
<rect x="220" y="176" width="5" height="5" rx="2.5" fill="#B0CEF7"/>
<rect y="198" width="5" height="5" rx="2.5" fill="#B0CEF7"/>
<rect x="22" y="198" width="5" height="5" rx="2.5" fill="#B0CEF7"/>
<rect x="44" y="198" width="5" height="5" rx="2.5" fill="#B0CEF7"/>
<rect x="66" y="198" width="5" height="5" rx="2.5" fill="#B0CEF7"/>
<rect x="88" y="198" width="5" height="5" rx="2.5" fill="#B0CEF7"/>
<rect x="110" y="198" width="5" height="5" rx="2.5" fill="#B0CEF7"/>
<rect x="132" y="198" width="5" height="5" rx="2.5" fill="#B0CEF7"/>
<rect x="154" y="198" width="5" height="5" rx="2.5" fill="#B0CEF7"/>
<rect x="176" y="198" width="5" height="5" rx="2.5" fill="#B0CEF7"/>
<rect x="198" y="198" width="5" height="5" rx="2.5" fill="#B0CEF7"/>
<rect x="220" y="198" width="5" height="5" rx="2.5" fill="#B0CEF7"/>
<rect y="220" width="5" height="5" rx="2.5" fill="#B0CEF7"/>
<rect x="22" y="220" width="5" height="5" rx="2.5" fill="#B0CEF7"/>
<rect x="44" y="220" width="5" height="5" rx="2.5" fill="#B0CEF7"/>
<rect x="66" y="220" width="5" height="5" rx="2.5" fill="#B0CEF7"/>
<rect x="88" y="220" width="5" height="5" rx="2.5" fill="#B0CEF7"/>
<rect x="110" y="220" width="5" height="5" rx="2.5" fill="#B0CEF7"/>
<rect x="132" y="220" width="5" height="5" rx="2.5" fill="#B0CEF7"/>
<rect x="154" y="220" width="5" height="5" rx="2.5" fill="#B0CEF7"/>
<rect x="176" y="220" width="5" height="5" rx="2.5" fill="#B0CEF7"/>
<rect x="198" y="220" width="5" height="5" rx="2.5" fill="#B0CEF7"/>
<rect x="220" y="220" width="5" height="5" rx="2.5" fill="#B0CEF7"/>
<rect y="242" width="5" height="5" rx="2.5" fill="#B0CEF7"/>
<rect x="22" y="242" width="5" height="5" rx="2.5" fill="#B0CEF7"/>
<rect x="44" y="242" width="5" height="5" rx="2.5" fill="#B0CEF7"/>
<rect x="66" y="242" width="5" height="5" rx="2.5" fill="#B0CEF7"/>
<rect x="88" y="242" width="5" height="5" rx="2.5" fill="#B0CEF7"/>
<rect x="110" y="242" width="5" height="5" rx="2.5" fill="#B0CEF7"/>
<rect x="132" y="242" width="5" height="5" rx="2.5" fill="#B0CEF7"/>
<rect x="154" y="242" width="5" height="5" rx="2.5" fill="#B0CEF7"/>
<rect x="176" y="242" width="5" height="5" rx="2.5" fill="#B0CEF7"/>
<rect x="198" y="242" width="5" height="5" rx="2.5" fill="#B0CEF7"/>
<rect x="220" y="242" width="5" height="5" rx="2.5" fill="#B0CEF7"/>
</svg>
