<svg width="23" height="13" viewBox="0 0 23 13" fill="none" xmlns="http://www.w3.org/2000/svg">
<path d="M21.6437 10.7971C21.3221 11.0561 20.9267 11.2083 20.5132 11.2322C20.0998 11.2562 19.6892 11.1507 19.3394 10.9306C18.2984 10.3503 17.2515 9.8164 16.2105 9.27091C15.0859 8.67628 13.8317 8.3638 12.5574 8.36076C11.2831 8.35773 10.0274 8.66423 8.89991 9.25351C7.46703 9.91505 6.04001 10.6636 4.65392 11.389L3.95795 11.7546C3.58356 11.9697 3.16204 12.0912 2.72977 12.1086C2.285 12.1081 1.85604 11.9449 1.52499 11.6502C1.19581 11.3719 0.967349 10.9945 0.874432 10.5754C0.781516 10.1563 0.829235 9.7186 1.01032 9.32894C2.63034 4.51821 5.82362 1.59927 10.5024 0.62436C10.8751 0.55737 11.2525 0.518573 11.6311 0.508301H12.0288H12.14C14.5165 0.557872 16.8076 1.39662 18.6471 2.89045C20.4866 4.38428 21.7682 6.44693 22.2871 8.74864C22.3935 9.1151 22.3892 9.50448 22.2749 9.86858C22.1606 10.2327 21.9411 10.5555 21.6437 10.7971Z" fill="white"/>
</svg>
