<svg width="128" height="96" viewBox="0 0 128 96" fill="none" xmlns="http://www.w3.org/2000/svg">
<path d="M-0.00317327 0.5C-0.0658982 1.27325 0.518391 2.08094 1.08594 2.58307C6.10473 7.37005 13.7246 6.56977 23.1113 6.56977C32.4981 6.56977 75.1489 6.5 101 6.5C117 7 123.873 7.02344 128 0.5C128 24.6872 128 48.8128 128 73C127.5 80.5 125.316 84.8277 121 89C116.684 93.1723 110.354 95.4122 104.359 96.0123C77.5842 96.0123 50.8078 96.0123 24.0296 96.0123C17.7841 95.4201 10.896 92.9415 6.5 88.5C2.10397 84.0585 0 79 -0.00188326 71.7323" fill="#5CD5C4"/>
</svg>
