<svg width="61" height="19" viewBox="0 0 61 19" fill="none" xmlns="http://www.w3.org/2000/svg">
<path d="M59.8751 6.06409C57.0183 9.33322 53.5173 11.9875 49.5876 13.8634C44.0402 16.5188 38.0032 18.0178 31.8492 18.2679C31.469 18.2679 31.0947 18.3085 30.7204 18.3375L30.0537 18.384H29.9776C24.1371 18.3126 18.3804 16.9944 13.0989 14.5191C8.96262 12.6261 5.16416 10.0782 1.85226 6.97517L1.74699 6.87072C0.997691 6.27932 0.490536 5.43788 0.319958 4.50307C0.203262 3.7563 0.327685 2.99205 0.675411 2.31972C1.02314 1.64739 1.57634 1.10147 2.25581 0.760105C3.00364 0.387679 3.85104 0.259526 4.67673 0.393987C5.50243 0.528449 6.26409 0.91863 6.85272 1.50869C10.6544 5.57701 15.4696 8.57935 20.8131 10.2133C24.2846 11.3268 27.9441 11.7469 31.5801 11.4493C34.9517 11.2394 38.2877 10.6455 41.5225 9.67939C45.6782 8.33719 49.4761 6.08408 52.6347 3.08712L52.9914 2.76216C53.5602 2.21308 54.1575 1.69397 54.7811 1.20694C55.1605 0.909442 55.596 0.690003 56.0619 0.561466C56.5279 0.432929 57.015 0.397871 57.4948 0.458344C57.9923 0.528186 58.4708 0.695496 58.9026 0.950535C59.3343 1.20557 59.7106 1.54325 60.0096 1.94392C60.4979 2.52861 60.7538 3.27034 60.729 4.0293C60.7043 4.78825 60.4005 5.51199 59.8751 6.06409Z" fill="white"/>
</svg>
