<svg width="321" height="510" viewBox="0 0 321 510" fill="none" xmlns="http://www.w3.org/2000/svg">
<g opacity="0.1" filter="url(#filter0_d)">
<path fill-rule="evenodd" clip-rule="evenodd" d="M333.59 153.642H280.415L263.968 204.266L264.043 204.318L280.415 153.902H333.585L349.962 204.318L350.032 204.266L333.59 153.642ZM327.868 161.809L327.862 161.798H286.138L286.132 161.809H327.868ZM307.003 197.561L312.934 193.254L310.664 186.277H303.342L301.066 193.254L307.003 197.561ZM255 207.191L274.86 146H339.14L359 207.191L307.003 245L255 207.191Z" fill="white"/>
<path fill-rule="evenodd" clip-rule="evenodd" d="M339.331 146.381H274.663L254.682 207.87L306.994 245.869L359.318 207.87L339.331 146.381ZM246 210.689L269.302 139H344.692L368 210.689L306.994 255L246 210.689Z" fill="white"/>
<path fill-rule="evenodd" clip-rule="evenodd" d="M345.077 138.123H268.929L245.395 210.471L307 255.191L368.605 210.471L345.077 138.123ZM237 213.196L263.752 131H350.254L377 213.196L307 264L237 213.196Z" fill="white"/>
<path fill-rule="evenodd" clip-rule="evenodd" d="M350.816 129.871H263.184L236.091 213.078L306.997 264.496L377.903 213.078L350.816 129.871ZM228 215.704L258.179 123H355.815L386 215.704L306.997 273L228 215.704Z" fill="white"/>
<path fill-rule="evenodd" clip-rule="evenodd" d="M355.789 121.615H257.222L226.754 215.684L306.503 273.816L386.252 215.684L355.789 121.615ZM219 218.211L252.429 115H360.577L394 218.211L306.503 282L219 218.211Z" fill="white"/>
<path fill-rule="evenodd" clip-rule="evenodd" d="M361.522 113.366H251.472L217.471 218.287L306.5 283.124L395.529 218.287L361.522 113.366ZM210 220.714L246.865 107H366.129L403 220.714L306.5 291L210 220.714Z" fill="white"/>
<path fill-rule="evenodd" clip-rule="evenodd" d="M367.265 105.116H245.735L208.176 220.884L306.497 292.432L404.824 220.884L367.265 105.116ZM201 223.219L241.304 99H371.701L412 223.219L306.497 300L201 223.219Z" fill="white"/>
<path fill-rule="evenodd" clip-rule="evenodd" d="M373.012 96.8611H239.994L198.88 223.493L306.497 301.756L414.12 223.493L373.012 96.8611ZM192 225.724L235.739 91H377.261L421 225.724L306.497 309L192 225.724Z" fill="white"/>
<path fill-rule="evenodd" clip-rule="evenodd" d="M378.749 89.6122H234.251L189.584 227.089L306.497 312.062L423.416 227.089L378.749 89.6122ZM183 229.233L230.173 84H382.821L430 229.233L306.497 319L183 229.233Z" fill="white"/>
<path fill-rule="evenodd" clip-rule="evenodd" d="M384.495 81.3523H228.511L180.297 229.7L306.5 321.374L432.708 229.7L384.495 81.3523ZM174 231.746L224.616 76H388.384L439 231.746L306.5 328L174 231.746Z" fill="white"/>
<path fill-rule="evenodd" clip-rule="evenodd" d="M390.235 73.1095H222.765L171 232.304L306.5 330.687L442 232.304L390.235 73.1095ZM165 234.251L219.054 68H393.946L448 234.251L306.5 337L165 234.251Z" fill="white"/>
<path fill-rule="evenodd" clip-rule="evenodd" d="M395.978 64.8555H217.016L161.702 234.9L306.5 339.998L451.298 234.9L395.978 64.8555ZM156 236.755L213.494 60H399.5L457 236.755L306.5 346L156 236.755Z" fill="white"/>
<path fill-rule="evenodd" clip-rule="evenodd" d="M401.729 56.5902H211.282L152.415 237.503L306.5 349.316L460.597 237.503L401.729 56.5902ZM147 239.266L207.938 52H405.068L466 239.266L306.5 355L147 239.266Z" fill="white"/>
<path fill-rule="evenodd" clip-rule="evenodd" d="M407.465 48.3478H205.535L143.121 240.107L306.497 358.627L469.879 240.107L407.465 48.3478ZM138 241.766L202.369 44H410.631L475 241.766L306.497 364L138 241.766Z" fill="white"/>
<path fill-rule="evenodd" clip-rule="evenodd" d="M413.215 40.0942H199.791L133.822 242.718L306.503 367.944L479.183 242.718L413.215 40.0942ZM130.206 245.148L129 244.273L196.809 36H416.203L484 244.273L306.503 373L130.206 245.148Z" fill="white"/>
<path fill-rule="evenodd" clip-rule="evenodd" d="M418.949 31.8462H194.045L124.523 245.31L306.497 377.25L488.471 245.31L418.949 31.8462ZM120 246.784L191.241 28H421.747L493 246.784L306.497 382L120 246.784Z" fill="white"/>
<path fill-rule="evenodd" clip-rule="evenodd" d="M424.7 24.5869H188.3L115.23 248.921L306.5 387.561L497.77 248.921L424.7 24.5869ZM111 250.286L185.68 21H427.32L502 250.286L306.5 392L111 250.286Z" fill="white"/>
<path fill-rule="evenodd" clip-rule="evenodd" d="M430.639 16.3334H183.361L106.932 251.523L306.997 396.872L507.068 251.523L430.639 16.3334ZM103 252.795L180.937 13H433.063L511 252.795L306.997 401L103 252.795Z" fill="white"/>
<path fill-rule="evenodd" clip-rule="evenodd" d="M436.382 8.09134H177.612L97.6278 254.121L306.997 406.183L516.372 254.121L436.382 8.09134ZM94.9041 255.963L94 255.301L175.378 5H438.628L520 255.301L306.997 410L94.9041 255.963Z" fill="white"/>
<path fill-rule="evenodd" clip-rule="evenodd" d="M442.124 -0.167785H171.876L88.3463 256.723L307 415.494L525.66 256.723L442.124 -0.167785ZM85 257.806L169.814 -3H444.191L529 257.806L307 419L85 257.806Z" fill="white"/>
<path fill-rule="evenodd" clip-rule="evenodd" d="M534.958 259.331L447.873 -8.41545H166.133L79.0417 259.331L307 424.811L534.958 259.331ZM76.7604 260.873L76 260.321L163.955 -10.1078L164.249 -11H449.751L538 260.321L307.76 427.453L307 428L76.7604 260.873Z" fill="white"/>
<path fill-rule="evenodd" clip-rule="evenodd" d="M453.618 -16.6688H160.382L69.7484 261.926L307.003 434.116L544.252 261.926L453.618 -16.6688ZM67 262.824L158.688 -19H455.312L547 262.824L307.003 437L67 262.824Z" fill="white"/>
<path fill-rule="evenodd" clip-rule="evenodd" d="M459.357 -24.9222H154.637L60.4434 264.539L307 443.433L553.551 264.539L459.357 -24.9222ZM58.6109 265.777L58 265.339L152.885 -26.2805L153.121 -27H460.879L555.764 264.62L556 265.339L307 446L58.6109 265.777Z" fill="white"/>
<path fill-rule="evenodd" clip-rule="evenodd" d="M465.108 -32.1755H148.892L51.1499 268.135L306.997 453.738L562.85 268.135L465.108 -32.1755ZM49.536 269.223L49 268.831L147.353 -33.3669L147.566 -34H466.434L564.798 268.198L565 268.831L306.997 456L49.536 269.223Z" fill="white"/>
<path fill-rule="evenodd" clip-rule="evenodd" d="M572.132 270.741L470.85 -40.4116H143.156L41.8677 270.741L307 463.049L572.132 270.741ZM40.4727 271.679L40 271.339L141.83 -41.4475L142.009 -42H471.997L573.821 270.792L574 271.339L307.467 464.655L307 465L40.4727 271.679Z" fill="white"/>
<path fill-rule="evenodd" clip-rule="evenodd" d="M476.595 -48.6706H137.405L32.5624 273.343L306.997 472.366L581.432 273.343L476.595 -48.6706ZM31.3863 274.138L31 273.85L136.292 -49.5338L136.436 -50H477.558L582.856 273.395L583 273.85L306.997 474L31.3863 274.138Z" fill="white"/>
<path fill-rule="evenodd" clip-rule="evenodd" d="M590.732 275.947L482.341 -56.9238H131.665L23.2685 275.947L307 481.665L590.732 275.947ZM22.3229 276.586L22 276.35L130.76 -57.6317L130.881 -58H483.125L591.879 275.982L592 276.35L307.323 482.764L307 483L22.3229 276.586Z" fill="white"/>
<path fill-rule="evenodd" clip-rule="evenodd" d="M600.02 279.161L488.081 -65.1814H125.919L13.9746 279.161L306.994 491.974L600.02 279.161ZM13.248 279.651L13 279.479L125.319 -66H488.681L601 279.479L307.236 492.821L306.994 493L13.248 279.651Z" fill="white"/>
<path fill-rule="evenodd" clip-rule="evenodd" d="M119.753 -74L119.69 -73.7982L4 281.981L4.17302 282.108L307 502L307.167 501.873L610 281.981L609.942 281.785L494.253 -74H119.753ZM4.67479 281.762L120.18 -73.4293H493.826L609.325 281.762L307 501.279L4.67479 281.762Z" fill="white"/>
</g>
<defs>
<filter id="filter0_d" x="0" y="-74" width="614" height="584" filterUnits="userSpaceOnUse" color-interpolation-filters="sRGB">
<feFlood flood-opacity="0" result="BackgroundImageFix"/>
<feColorMatrix in="SourceAlpha" type="matrix" values="0 0 0 0 0 0 0 0 0 0 0 0 0 0 0 0 0 0 127 0"/>
<feOffset dy="4"/>
<feGaussianBlur stdDeviation="2"/>
<feColorMatrix type="matrix" values="0 0 0 0 0 0 0 0 0 0 0 0 0 0 0 0 0 0 0.25 0"/>
<feBlend mode="normal" in2="BackgroundImageFix" result="effect1_dropShadow"/>
<feBlend mode="normal" in="SourceGraphic" in2="effect1_dropShadow" result="shape"/>
</filter>
</defs>
</svg>
