<svg width="128" height="48" viewBox="0 0 128 48" fill="none" xmlns="http://www.w3.org/2000/svg">
<path d="M26.8395 11.0054V11.1505C25.8102 12.6767 24.3071 13.4717 22.6929 14.1797C19.7687 15.4099 16.6573 16.0657 13.581 16.8084C10.2766 17.6035 6.9371 18.294 3.82571 19.71C2.64492 20.1854 1.61043 20.9598 0.825432 21.9558C0.477696 22.3975 0.0816157 22.9453 7.80858e-05 23.5C7.80858e-05 23.5 6.32368e-05 19.5 5.38863e-05 16C-0.00507202 14.5 -0.0341147 13.53 0.00287383 12.5C0.154751 8.27075 0.174849 5.62908 4.99853 0C5.44301 0.0986521 7.48101 0.989297 7.9255 1.07054C8.36998 1.15178 8.84371 1.25624 9.30574 1.34328C10.2298 1.51738 11.1539 1.68566 12.0721 1.87136C13.6044 2.17312 15.1484 2.45167 16.669 2.80566C16.8854 2.85788 17.1076 2.90431 17.324 2.96234C17.7568 3.06679 18.1896 3.17705 18.6165 3.29892L19.1019 3.43239C20.2323 3.75891 21.34 4.15824 22.418 4.62782C26.0616 6.23527 26.9038 7.6338 26.8395 11.0054Z" fill="#5CD5C4"/>
<path d="M26.5 48C24.0483 47.9381 11 48 0.00142121 48C0.000821682 41.5 0.00103116 28 0 23.5C0.249664 21.8279 1.32453 20.7228 4.00061 19.5C7.55157 17.8774 10.743 17.105 15.5006 16C20.2582 14.895 24.5006 14 26.8599 11.2073C26.7383 17.3343 26.5 41.8724 26.5 48Z" fill="#D6FFF7"/>
<path d="M101.019 11.0054V11.1505C102.049 12.6767 103.552 13.4717 105.166 14.1797C108.09 15.4099 111.202 16.0657 114.278 16.8084C117.582 17.6035 121.389 18.5841 124.5 20C126 25 127.5 25 128 23.5C128 23.5 128 19.5 128 16C128.005 14.5 127.893 13.53 127.856 12.5C127.704 8.27075 127.824 5.62908 123 0C122.556 0.0986521 122.158 0.663988 119.933 1.07054C119.489 1.15178 119.015 1.25624 118.553 1.34328C117.629 1.51738 116.705 1.68566 115.787 1.87136C114.254 2.17312 112.71 2.45167 111.19 2.80566C110.973 2.85788 110.751 2.90431 110.535 2.96234C110.102 3.06679 109.669 3.17705 109.242 3.29892L108.757 3.43239C107.627 3.75891 106.519 4.15824 105.441 4.62782C101.797 6.23527 100.955 7.6338 101.019 11.0054Z" fill="#5CD5C4"/>
<path d="M101.23 48H128C128 46.5 128 24.5 127.999 23.5C127.749 21.8279 126.534 20.7228 123.858 19.5C120.307 17.8774 117.115 17.105 112.358 16C107.6 14.895 103.358 14 100.998 11.2073C101.12 17.3343 101.23 41.8724 101.23 48Z" fill="#D6FFF7"/>
</svg>
