<svg width="68" height="68" viewBox="0 0 68 68" fill="none" xmlns="http://www.w3.org/2000/svg">
<path d="M47.4862 35.3591C47.1057 36.9959 46.3941 38.5375 45.3954 39.8889C43.9868 41.7992 42.2015 43.4004 40.1499 44.5938C40.0204 44.6622 39.9002 44.7435 39.7779 44.8208L39.5592 44.9567L39.5333 44.9704C37.5302 45.997 35.3295 46.5802 33.0809 46.6806C31.3281 46.7749 29.5717 46.5834 27.8804 46.1137L27.8255 46.0968C27.463 46.0285 27.1375 45.8308 26.9099 45.5405C26.7346 45.305 26.6384 45.0202 26.635 44.7267C26.6315 44.4332 26.721 44.1462 26.8906 43.9067C27.0779 43.6442 27.3434 43.4477 27.6491 43.3453C27.9549 43.2429 28.2852 43.2398 28.5928 43.3365C30.6261 44.0495 32.8114 44.2141 34.9285 43.8136C36.3134 43.5713 37.6365 43.057 38.8215 42.3005C39.9323 41.6217 40.9613 40.8173 41.8884 39.9034C43.0609 38.6946 43.9464 37.2374 44.4791 35.6397L44.5417 35.4639C44.6359 35.173 44.7453 34.8872 44.8694 34.6077C44.9448 34.4373 45.0534 34.2835 45.1888 34.1555C45.3243 34.0276 45.4839 33.9279 45.6583 33.8623C45.8405 33.7967 46.0339 33.7681 46.2273 33.778C46.4207 33.7879 46.6102 33.8361 46.7847 33.9199C47.0572 34.0328 47.2789 34.2415 47.4081 34.5066C47.5373 34.7717 47.5651 35.0749 47.4862 35.3591Z" fill="white"/>
<path d="M27.8957 37.6821C27.823 37.8191 27.7108 37.9312 27.5736 38.0037C27.4365 38.0761 27.2806 38.1056 27.1264 38.0883L26.6565 38.0816C26.3793 38.0827 26.1021 38.0839 25.8258 38.0819C24.7681 38.0772 23.9221 38.5215 23.2351 39.4502C22.8153 40.0211 22.481 40.4933 22.1856 40.9424C22.134 41.0232 22.0782 41.1011 22.0225 41.1789C21.9398 41.3007 21.8299 41.4016 21.7014 41.4734C21.5563 41.549 21.3901 41.574 21.2292 41.5444C21.0728 41.5119 20.9306 41.431 20.8227 41.3133C20.7148 41.1956 20.6466 41.0469 20.6278 40.8884C20.4881 40.2631 20.4785 39.6157 20.5996 38.9866C20.8585 37.5754 21.5795 36.4988 22.681 35.8482L22.699 35.8387C23.4208 35.4557 24.2408 35.2975 25.0534 35.3843C25.8659 35.4712 26.6339 35.7992 27.2586 36.3261C27.4154 36.4562 27.5646 36.5953 27.7054 36.7426C27.841 36.853 27.934 37.007 27.9687 37.1783C28.0034 37.3496 27.9776 37.5276 27.8957 37.6821Z" fill="white"/>
<path d="M46.8145 27.6886C46.7519 27.8354 46.6447 27.9589 46.5082 28.0415C46.3716 28.1241 46.2126 28.1618 46.0535 28.1492C45.5935 28.1372 45.14 28.1422 44.6863 28.1423C44.1952 28.1404 43.7112 28.2588 43.2764 28.4871C42.8417 28.7154 42.4694 29.0466 42.1921 29.4519C41.8238 29.9369 41.4733 30.4508 41.1326 30.9494L40.9618 31.2002C40.8732 31.3414 40.7516 31.459 40.6075 31.5428C40.4558 31.6227 40.28 31.6438 40.1138 31.6022C39.9512 31.5658 39.8048 31.4773 39.6972 31.3501C39.5895 31.2229 39.5264 31.064 39.5174 30.8976C39.1969 28.9539 39.7555 27.3768 41.173 26.2C41.2879 26.1099 41.4094 26.0287 41.5366 25.957L41.6721 25.8854L41.7099 25.8655C42.5287 25.4548 43.4615 25.3305 44.3593 25.5125C45.257 25.6945 46.0679 26.1723 46.6621 26.8694C46.7649 26.9761 46.834 27.1105 46.8611 27.2562C46.8882 27.4018 46.872 27.5521 46.8145 27.6886Z" fill="white"/>
</svg>
