<svg width="39" height="39" viewBox="0 0 39 39" fill="none" xmlns="http://www.w3.org/2000/svg">
<rect x="0.25" y="0.25" width="38.5" height="38.5" rx="7" fill="#7187A5"/>
<path d="M28.5864 19.4017C28.3201 20.5475 27.822 21.6266 27.1229 22.5726C26.1368 23.9097 24.8872 25.0306 23.451 25.8659C23.3604 25.9138 23.2762 25.9708 23.1906 26.0249L23.0375 26.12L23.0194 26.1296C21.6172 26.8482 20.0768 27.2565 18.5027 27.3267C17.2758 27.3927 16.0463 27.2587 14.8623 26.9299L14.824 26.9181C14.5702 26.8703 14.3424 26.7319 14.183 26.5287C14.0603 26.3638 13.993 26.1644 13.9906 25.959C13.9882 25.7536 14.0508 25.5526 14.1695 25.385C14.3006 25.2012 14.4865 25.0637 14.7005 24.992C14.9145 24.9203 15.1457 24.9182 15.361 24.9859C16.7843 25.485 18.3141 25.6002 19.796 25.3198C20.7655 25.1502 21.6917 24.7902 22.5212 24.2606C23.2987 23.7855 24.019 23.2224 24.6679 22.5827C25.4887 21.7365 26.1086 20.7165 26.4815 19.5981L26.5253 19.475C26.5912 19.2714 26.6678 19.0713 26.7547 18.8757C26.8074 18.7564 26.8834 18.6488 26.9783 18.5592C27.0731 18.4696 27.1848 18.3998 27.3069 18.3539C27.4345 18.308 27.5699 18.288 27.7052 18.2949C27.8406 18.3018 27.9732 18.3356 28.0954 18.3942C28.2861 18.4733 28.4413 18.6194 28.5318 18.8049C28.6222 18.9905 28.6417 19.2028 28.5864 19.4017Z" fill="white"/>
<path d="M14.8719 21.0277C14.8211 21.1237 14.7425 21.2021 14.6465 21.2528C14.5504 21.3036 14.4414 21.3242 14.3334 21.3121L14.0045 21.3074C13.8104 21.3082 13.6164 21.309 13.423 21.3076C12.6826 21.3043 12.0904 21.6153 11.6095 22.2654C11.3156 22.665 11.0817 22.9956 10.8748 23.31C10.8387 23.3665 10.7997 23.421 10.7607 23.4755C10.7028 23.5608 10.6258 23.6314 10.5359 23.6817C10.4343 23.7346 10.318 23.7521 10.2053 23.7314C10.0959 23.7086 9.99636 23.652 9.92083 23.5696C9.84529 23.4872 9.79756 23.3831 9.78438 23.2721C9.68658 22.8344 9.67985 22.3813 9.76461 21.9409C9.94585 20.9531 10.4506 20.1994 11.2216 19.744L11.2342 19.7374C11.7395 19.4693 12.3135 19.3585 12.8823 19.4193C13.4511 19.4801 13.9887 19.7097 14.4259 20.0786C14.5357 20.1696 14.6402 20.267 14.7387 20.3701C14.8336 20.4474 14.8987 20.5551 14.923 20.6751C14.9473 20.795 14.9292 20.9196 14.8719 21.0277Z" fill="white"/>
<path d="M28.115 14.0323C28.0712 14.1351 27.9962 14.2215 27.9006 14.2793C27.8051 14.3371 27.6937 14.3635 27.5824 14.3547C27.2604 14.3463 26.9429 14.3498 26.6253 14.3498C26.2816 14.3485 25.9428 14.4314 25.6384 14.5912C25.3341 14.751 25.0735 14.9829 24.8794 15.2666C24.6216 15.6061 24.3763 15.9658 24.1377 16.3148L24.0182 16.4904C23.9562 16.5893 23.871 16.6716 23.7701 16.7302C23.664 16.7861 23.541 16.8009 23.4246 16.7718C23.3107 16.7463 23.2083 16.6844 23.1329 16.5953C23.0576 16.5063 23.0134 16.3951 23.0071 16.2786C22.7827 14.918 23.1738 13.814 24.166 12.9902C24.2464 12.9272 24.3315 12.8703 24.4205 12.8202L24.5154 12.7701L24.5419 12.7561C25.115 12.4686 25.768 12.3816 26.3964 12.509C27.0248 12.6364 27.5924 12.9708 28.0084 13.4588C28.0803 13.5335 28.1287 13.6276 28.1477 13.7296C28.1667 13.8315 28.1553 13.9368 28.115 14.0323Z" fill="white"/>
</svg>
